<svg version="1.1" width="423.33333mm" height="211.66667mm" viewBox="0 0 423.33333 211.66667" xmlns="http://www.w3.org/2000/svg" xmlns:xlink="http://www.w3.org/1999/xlink"><path d="M21.231607 123.91955Q20.395411 139.09348 30.326398 149.74919L79.050569 182.99011L389.18527 148.45204L389.39205 148.32949L390.80051 147.39701L391.29105 147.03362L392.54837 145.99608L393.01546 145.56654L394.13872 144.41723L394.5577 143.94059L395.55913 142.6726L395.91306 142.17472L396.80383 140.77742L397.08599 140.28533L397.87795 138.74007L398.09101 138.27687L398.79668 136.55266L398.94969 136.13472L399.58168 134.18362L399.68651 133.8203L400.25711 131.57085L400.32572 131.26586L400.8475 128.61087L400.89035 128.36432L401.37836 125.13444L401.3966 125.00327L401.554 123.76464L401.8325 120.49824Q402.5494 105.22305 401.7283 89.951325L401.40226 87.605238L401.35508 87.323758L400.83568 84.6836L400.76216 84.365237L400.15659 82.087996L400.04858 81.735888L399.35708 79.753889L399.20618 79.374524L398.42689 77.638226L398.2257 77.241992L397.35532 75.715492L397.0992 75.316522L396.13369 73.974402L395.82251 73.589354L394.7576 72.41403L394.39695 72.059823L393.22817 71.039105L392.82934 70.730115L391.55127 69.855106L335.93648 31.913234L335.51497 31.658877L334.11976 30.922518L333.69277 30.726081L332.16822 30.122564L331.75203 29.981544L330.07947 29.506522L329.68745 29.414128L327.83949 29.065435L327.48122 29.012536L325.4191 28.79113L325.10043 28.768001L322.76999 28.679015L322.49372 28.676559L319.81828 28.730659L319.58513 28.741048L316.45152 28.956723L316.29697 28.969838L314.14413 29.187L313.99476 29.204377L310.01825 29.728536L309.77854 29.766096L306.63839 30.336409L306.35028 30.397434L303.74323 31.028766L303.40737 31.122176L301.17652 31.823751L300.79641 31.959392L298.84721 32.739072L298.4303 32.926514L296.7017 33.791878L296.26011 34.038533L294.71179 34.996862L294.26205 35.305733L292.86747 36.363659L292.42887 36.731422L291.17061 37.89482L290.76226 38.31118L289.62837 39.58578L289.26598 40.034631L288.24722 41.427496L287.94065 41.889665L287.02882 43.411263L286.78126 43.867817L285.96859 45.534204L285.77744 45.969173L285.05683 47.803948L285.01159 47.932555L271.49889 38.713831L271.05645 38.448099L269.70201 37.74161L269.25372 37.539344L267.77111 36.969158L267.33572 36.827344L265.7056 36.388603L265.29827 36.299139L263.49131 35.989338L263.12256 35.941502L261.09615 35.761702L260.77208 35.744305L258.46525 35.700477L258.18848 35.70329L255.5124 35.808108L255.28337 35.822536L252.10151 36.098637L251.99425 36.109137L251.53608 36.159075L251.41067 36.174373L247.65075 36.681879L247.32732 36.736405L244.88535 37.23044L244.45969 37.335714L242.59066 37.883049L242.06575 38.06728L240.52565 38.699612L239.92437 38.990482L239.37101 39.300568L238.87846 39.148029L238.05696 39.08087L237.3482 39.072611L236.75841 39.102143L224.24464 40.495735L223.65485 40.597568L222.94609 40.763688L222.12459 41.013819L221.35037 41.42603L220.59755 41.88866L219.87187 42.398101L219.24363 43.038616L218.65192 43.717966L218.1016 44.430581L217.68817 45.228978L217.3228 46.050159L217.00837 46.887845L216.92669 47.351572L211.09814 43.375185L210.37246 43.027374L209.61964 42.73242L208.84542 42.49265L208.02393 42.425491L207.31516 42.417232L206.72537 42.446764L193.58592 43.910035L192.99612 44.011868L192.28736 44.177988L191.46586 44.42812L190.69165 44.84033L189.93883 45.30296L189.21314 45.812401L188.58491 46.452917L187.9932 47.132266L187.44287 47.844881L187.02944 48.643278L186.66408 49.464459L186.34965 50.302145L186.19663 51.170878L186.11253 51.915055L186.07766 52.530409V54.211133L175.93446 47.291178L175.20878 46.943368L174.45596 46.648413L173.68174 46.408643L172.86025 46.341484L172.15148 46.333225L171.56169 46.362757L158.54738 47.812093L157.95758 47.913925L157.24882 48.080046L156.42732 48.330177L155.65311 48.742387L154.90029 49.205018L154.1746 49.714459L153.54636 50.354974L152.95466 51.034324L152.40433 51.746939L151.9909 52.545335L151.62554 53.366516L151.31111 54.204202L151.15808 55.072936L151.07399 55.817113L151.03912 56.432467V61.119462L140.5244 53.946046L140.10204 53.690946L138.70692 52.954143L138.2812 52.758073L136.75131 52.151427L136.33856 52.011129L134.65356 51.530112L134.26683 51.438177L132.39717 51.080562L132.04547 51.02749L129.9496 50.794293L129.63815 50.770253L127.25845 50.666753L126.98944 50.662743L124.2449 50.699769L124.01852 50.708181L120.79052 50.904287L120.61544 50.918105L117.19581 51.250059L117.03587 51.268234L112.73875 51.827738L112.51759 51.861609L109.13476 52.457443L108.86835 52.51179L106.06944 53.161127L105.75773 53.243796L103.37162 53.956614L103.01675 54.076514L100.93981 54.860811L100.54715 55.027065L98.711633 55.890381L98.29068 56.110865L97.378139 56.639379L63.435718 33.482963L62.710035 33.135153L61.957212 32.840199L61.182998 32.600429L60.361499 32.533269L59.652738 32.525011L59.062944 32.554543L29.029908 35.899163L28.440115 36.000996L27.731354 36.167116L26.909855 36.417248L26.135641 36.829458L25.382818 37.292088L24.657135 37.801529L24.028897 38.442045L23.43719 39.121394L22.886865 39.834009L22.473435 40.632406L22.108071 41.453587L21.793638 42.291273L21.640617 43.160006L21.556518 43.904183L21.521649 44.519537V56.066128L21.556518 56.673716L21.640617 57.399161L21.793638 58.233812L22.108071 59.001465L22.473435 59.741269L22.886865 60.447582L23.43719 61.037624L24.028897 61.585183L24.657135 62.085771L39.291196 72.069513V117.65835L27.90367 118.92651L27.313876 119.02835L26.605115 119.19447L25.783616 119.4446L25.009402 119.85681L24.256579 120.31944L23.530896 120.82888L22.902658 121.4694L22.310951 122.14874L21.760627 122.86136L21.347196 123.65976z" fill="url(#d0)"/><path d="M25.400917 138.53604L25.485015 139.26149L25.850379 140.00129L26.442085 140.54885L27.194908 140.8438L27.90367 140.85206L76.457078 135.44493L77.165839 135.27881L77.918662 134.81618L78.510369 134.13683L78.875732 133.31565L78.959831 132.57147V121.02488L78.875732 120.29943L78.510369 119.55963L77.918662 119.01207L77.165839 118.71711L76.457078 118.70886L61.565697 120.36723V40.060043L61.481599 39.334597L61.116235 38.594793L60.524529 38.047234L59.771706 37.75228L59.062944 37.744022L29.029908 41.088642L28.321147 41.254763L27.568324 41.717393L26.976617 42.396742L26.611254 43.217923L26.527155 43.9621V55.508691L26.611254 56.234137L26.976617 56.973941L27.568324 57.5215L28.321147 57.816454L29.029908 57.824712L44.296702 56.12453V122.29039L27.90367 124.11599L27.194908 124.28211L26.442085 124.74474L25.850379 125.42409L25.485015 126.24527L25.400917 126.98945zM87.969741 97.447258L88.047047 103.67969L88.253226 108.43925L88.566388 112.2682L88.975066 115.44111L89.473075 118.12357L90.057791 120.42522L90.729323 122.42249L91.489875 124.16978L92.343062 125.70569L93.293193 127.05717L94.344759 128.24262L95.502443 129.27472L96.771914 130.16269L98.16136 130.91389L99.683476 131.53437L101.35757 132.02872L103.21175 132.39932L105.28548 132.64546L107.63336 132.76232L110.33178 132.73978L113.49149 132.56044L117.12681 132.21312L121.40017 131.65648L124.77703 131.06145L127.57559 130.41211L129.96328 129.69897L132.04237 128.91428L133.88004 128.05066L135.52177 127.10082L136.99833 126.05787L138.33041 124.91553L139.53211 123.6679L140.61375 122.3085L141.58388 120.82858L142.45033 119.21513L143.22037 117.44887L143.90033 115.50245L144.49513 113.33866L145.0078 110.90805L145.43923 108.14512L145.78799 104.96193L146.05017 101.23633L146.21897 96.789427L146.28365 91.337303L146.28389 90.953119L146.20619 84.665214L145.99991 79.907356L145.68722 76.097049L145.27943 72.948066L144.78251 70.290413L144.19883 68.012592L143.52804 66.037471L142.7677 64.310513L141.91401 62.793263L140.96255 61.459108L139.90877 60.28997L138.74794 59.273438L137.47423 58.40042L136.07911 57.663616L134.54921 57.056971L132.86422 56.575955L130.99456 56.21834L128.89869 55.985142L126.51899 55.881642L123.77445 55.918668L120.54645 56.114775L117.12681 56.446728L112.82969 57.006233L109.44686 57.602067L106.64795 58.251404L104.26184 58.964223L102.1849 59.748519L100.34939 60.611835L98.709631 61.561529L97.234804 62.604542L95.904235 63.747179L94.703852 64.995345L93.623353 66.35554L92.654199 67.83654L91.788588 69.451417L91.019286 71.219503L90.339993 73.16817L89.745871 75.334613L89.233986 77.768177L88.803581 80.534014L88.456244 83.719382L88.1961 87.444947L88.030229 91.886406L87.969768 97.320178zM105.86443 95.454421L105.94143 90.106374L106.13323 86.471445L106.40721 83.798131L106.74207 81.771293L107.11998 80.215945L107.52553 79.017904L107.94735 78.092079L108.38176 77.367774L108.83709 76.783294L109.33627 76.286896L109.91567 75.840505L110.62117 75.421914L111.50489 75.023185L112.62602 74.646168L114.05798 74.297432L115.90502 73.984011L117.12681 73.831483L119.57391 73.633106L121.30575 73.62623L122.58909 73.745438L123.56007 73.951874L124.30952 74.221532L124.90798 74.545605L125.41201 74.932833L125.86319 75.409308L126.28657 76.014674L126.69195 76.797252L127.07792 77.811488L127.43649 79.119534L127.75649 80.797187L128.0255 82.94485L128.23034 85.706871L128.35655 89.309971L128.3892 92.945956L128.31216 98.367009L128.12027 102.04988L127.84608 104.75798L127.51084 106.8112L127.13231 108.387L126.72591 109.60089L126.30322 110.53869L125.86835 111.2715L125.41359 111.86139L124.91673 112.36067L124.34195 112.8082L123.64366 113.22698L122.76992 113.62561L121.66175 114.00264L120.24626 114.35167L118.42024 114.66574L117.12681 114.82837L114.68012 115.02659L112.95271 115.03298L111.67388 114.91345L110.70663 114.7069L109.95987 114.43719L109.36299 114.11286L108.85951 113.72485L108.40806 113.24675L107.98385 112.63872L107.57728 111.85231L107.18987 110.83298L106.82967 109.51845L106.50781 107.83276L106.23664 105.67533L106.02924 102.90174L105.89999 99.285795zM156.04462 99.077443L156.1234 104.51156L156.32969 108.47852L156.64089 111.58534L157.04724 114.11249L157.54549 116.2208L158.13679 118.01189L158.8253 119.55214L159.61656 120.88413L160.5158 122.03386L161.52686 123.01658L162.65281 123.84192L163.89856 124.51771L165.27468 125.05149L166.80157 125.44997L168.51333 125.71721L170.46237 125.85267L172.72714 125.84911L175.42828 125.68984L177.69344 125.46814L181.27526 124.98347L183.81183 124.47816L185.82354 123.91163L187.51318 123.26169L188.9824 122.51105L190.28513 121.64628L191.45045 120.65802L192.49684 119.53861L192.83509 119.08652V119.88978L192.91919 120.61523L193.28455 121.35503L193.87626 121.90259L194.62908 122.19754L195.33784 122.2058L206.72537 120.93763L207.43413 120.77151L208.18696 120.30888L208.77866 119.62953L209.14403 118.80835L209.22812 118.06418V49.952264L209.14403 49.226818L208.77866 48.487015L208.18696 47.939456L207.43413 47.644501L206.72537 47.636243L193.58592 49.099514L192.87716 49.265635L192.12433 49.728265L191.53263 50.407614L191.16726 51.228796L191.08316 51.972972V87.131693L191.00583 92.543634L190.81525 96.140457L190.54526 98.741496L190.21825 100.68021L189.85338 102.13927L189.46762 103.2374L189.0735 104.06368L188.67421 104.69335L188.25826 105.19254L187.7968 105.61566L187.24616 106.00023L186.55331 106.36501L185.65898 106.71331L184.49421 107.03922L182.96697 107.33381L181.44757 107.53557L179.27428 107.70318L177.9161 107.68159L177.01661 107.55734L176.41452 107.37897L175.99942 107.17089L175.68405 106.92759L175.4061 106.61193L175.13362 106.16436L174.86156 105.51518L174.60147 104.58907L174.37185 103.2982L174.19288 101.52407L174.08529 99.081853L174.06444 97.07067V53.868257L173.98035 53.142812L173.61498 52.403008L173.02328 51.855449L172.27045 51.560495L171.56169 51.552236L158.54738 53.001572L157.83861 53.167692L157.08579 53.630323L156.49408 54.309672L156.12872 55.130853L156.04462 55.87503zM221.74189 144.56403L221.82599 145.28948L222.19135 146.02928L222.78306 146.57684L223.53588 146.8718L224.24464 146.88006L237.3841 145.41678L238.09286 145.25066L238.84568 144.78803L239.43739 144.10868L239.80275 143.2875L239.88685 142.54333V115.82681L240.04814 115.95576L241.17252 116.58507L242.41303 117.04515L243.79629 117.35212L245.37851 117.51827L247.26081 117.5459L249.62102 117.42108L252.15034 117.17627L255.80477 116.68754L258.69666 116.14316L261.1041 115.53022L263.17073 114.83996L264.98236 114.06438L266.59336 113.19573L268.03854 112.22683L269.33996 111.15152L270.51182 109.96445L271.56428 108.65988L272.50594 107.22948L273.34506 105.65985L274.08959 103.93012L274.74656 102.01005L275.32139 99.858056L275.81734 97.41864L276.23531 94.61808L276.57367 91.356857L276.8282 87.495748L276.99164 82.828613L277.05265 77.022978L277.05273 76.779294L276.97548 70.133975L276.77063 65.123079L276.46096 61.133912L276.05846 57.859677L275.56968 55.116344L274.99742 52.782344L274.3416 50.773028L273.59981 49.028159L272.76806 47.505061L271.84166 46.174234L270.81595 45.015896L269.68644 44.016862L268.44813 43.167802L267.09368 42.461313L265.61107 41.891127L263.98096 41.452386L262.174 41.142585L260.14759 40.962784L257.84076 40.918956L255.16467 41.023774L251.98282 41.299875L251.52465 41.349814L247.76473 41.857319L245.32276 42.351355L243.45372 42.89869L241.91362 43.531022L240.59155 44.271866L239.43694 45.136624L239.01455 45.553148L238.8117 45.142394L238.21999 44.594835L237.46717 44.299881L236.75841 44.291622L224.24464 45.685214L223.53588 45.851335L222.78306 46.313965L222.19135 46.993314L221.82599 47.814495L221.74189 48.558672zM239.13602 80.612667L239.21382 74.889275L239.40519 71.101436L239.67667 68.360786L240.0065 66.312688L240.37613 64.764807L240.7689 63.593709L241.17187 62.708306L241.58006 62.032846L242.00179 61.500689L242.46202 61.055734L243.00096 60.65729L243.66917 60.282879L244.52374 59.926093L245.6301 59.590943L247.07254 59.28574L248.97969 59.018009L249.0219 59.013287L251.26761 58.837031L252.81932 58.846306L253.94884 58.97328L254.79121 59.179144L255.43738 59.442375L255.95812 59.759922L256.40814 60.148887L256.82418 60.64413L257.22468 61.292527L257.61324 62.147975L257.98391 63.270447L258.326 64.729876L258.62699 66.614685L258.87377 69.04627L259.0525 72.205089L259.14762 76.385286L259.15805 78.642394L259.08115 84.169704L258.88998 87.902722L258.61762 90.627949L258.28587 92.676997L257.91326 94.233871L257.51623 95.418216L257.1075 96.31897L256.69201 97.010278L256.26186 97.557422L255.79314 98.01554L255.247 98.425026L254.57433 98.80873L253.71945 99.173794L252.61874 99.516916L251.19116 99.830224L249.31537 100.1062L249.0219 100.13991L246.84893 100.30892L245.3336 100.29687L244.22817 100.16883L243.40386 99.963119L242.77177 99.70093L242.26193 99.384668L241.82027 98.996296L241.41077 98.499959L241.01581 97.847913L240.63259 96.985483L240.26757 95.851712L239.93176 94.375025L239.63779 92.463961L239.39883 89.991253L239.22861 86.764349L239.14267 82.461109zM286.9386 75.159409L287.01585 81.418016L287.22193 86.200095L287.53492 90.047277L287.94332 93.234748L288.44086 95.928769L289.02487 98.23959L289.6954 100.24413L290.45463 101.99719L291.30613 103.53776L292.25423 104.89304L293.30343 106.08165L294.45838 107.11639L295.7247 108.00656L297.11048 108.75954L298.62822 109.38143L300.29705 109.87686L302.14481 110.24829L304.21071 110.49509L306.54911 110.61253L309.2361 110.59059L312.3822 110.41194L315.97054 110.06895L320.23952 109.51073L323.39745 108.94087L325.92285 108.32686L328.03095 107.65162L329.84201 106.90195L331.42917 106.06606L332.83763 105.13357L334.09495 104.09604L335.21821 102.94673L336.21964 101.67873L337.11041 100.28143L337.90237 98.736174L338.60805 97.011963L339.24003 95.060861L339.81063 92.811411L340.33241 90.156418L340.82042 86.926537L340.97782 85.687908L340.99353 85.026327L340.79044 84.304397L340.38581 83.69931L339.81515 83.264202L339.1286 83.037283L338.49532 83.040193L326.23183 84.405913L325.64062 84.529562L324.99311 84.866506L324.44031 85.366618L324.02447 85.991662L323.8161 86.591373L323.19224 88.756236L322.73362 89.93377L322.35373 90.6518L322.02262 91.112202L321.69839 91.443268L321.31508 91.729471L320.79062 92.013555L320.03595 92.305577L318.94893 92.599179L317.38486 92.886338L315.72026 93.101274L313.0665 93.321104L311.26311 93.335806L309.96123 93.222014L308.99892 93.022606L308.27291 92.763969L307.70455 92.455889L307.23116 92.088542L306.80697 91.632496L306.40489 91.043096L306.01457 90.265885L305.63722 89.238583L305.28006 87.887232L304.95201 86.115384L304.66113 83.782784L304.51088 81.894855L339.37128 78.012636L340.07179 77.849699L340.81762 77.39648L341.40774 76.730257L341.77863 75.922751L341.8736 75.187627L341.92927 67.798034L341.82539 62.200427L341.59681 57.725943L341.26191 54.04064L340.83161 50.94427L340.31221 48.304111L339.70664 46.02687L339.01514 44.04487L338.23585 42.308572L337.36547 40.782073L336.39996 39.439952L335.33506 38.264628L334.16628 37.24391L332.8882 36.368901L331.49299 35.632542L329.96845 35.029025L328.29588 34.554003L326.44792 34.20531L324.38579 33.983904L322.05536 33.894917L319.37993 33.949017L316.24632 34.164692L314.09347 34.381854L310.11696 34.906013L306.97681 35.476326L304.36976 36.107658L302.1389 36.809233L300.18971 37.588914L298.46112 38.454277L296.9128 39.412606L295.51822 40.470532L294.25996 41.633931L293.12608 42.908531L292.10732 44.301396L291.19548 45.822994L290.38282 47.489382L289.66221 49.324156L289.02777 51.360203L288.47535 53.64166L288.00296 56.226773L287.61096 59.192693L287.30217 62.643897L287.08212 66.727691L286.95971 71.66494zM304.58493 65.92896L304.67798 63.976795L304.96257 60.880539L305.29696 58.650921L305.66654 57.002102L306.05647 55.773574L306.45412 54.85696L306.85386 54.167192L307.26303 53.631393L307.70616 53.18836L308.2242 52.793169L308.86941 52.420322L309.70098 52.061658L310.78652 51.720263L312.21282 51.403714L314.11214 51.118386L314.59403 51.062181L316.91975 50.877753L318.48645 50.884785L319.60577 51.009371L320.4254 51.210206L321.04309 51.464447L321.53453 51.76923L321.95791 52.143742L322.35169 52.626456L322.73444 53.26861L323.10908 54.129008L323.46919 55.274049L323.80432 56.783921L324.10328 58.765534L324.35561 61.376369L324.48696 63.712576z" fill="#fff"/><defs><linearGradient id="d0" gradientUnits="userSpaceOnUse" x1="211.66667" y1="28.676559" x2="211.66667" y2="182.99011"><stop offset="0" stop-color="#0f172a"/><stop offset=".5" stop-color="#1e40af"/><stop offset="1" stop-color="#60a5fa"/></linearGradient></defs></svg>